<mxfile host="app.diagrams.net" modified="2021-07-15T00:56:25.472Z" agent="5.0 (X11; Linux x86_64) AppleWebKit/537.36 (KHTML, like Gecko) Chrome/91.0.4472.114 Safari/537.36" etag="5A5tlHqj_vg_Ur5BGfu4" version="14.8.5" type="github">
  <diagram id="gOQFX9uu_-L16-iT7WhQ" name="by-business-capability">
    <mxGraphModel dx="2654" dy="1805" grid="1" gridSize="10" guides="1" tooltips="1" connect="1" arrows="1" fold="1" page="1" pageScale="1" pageWidth="850" pageHeight="1100" math="0" shadow="0">
      <root>
        <mxCell id="0" />
        <mxCell id="1" parent="0" />
        <mxCell id="0uqqqMU11IoS7kORtfzS-2" value="" style="rounded=0;whiteSpace=wrap;html=1;dashed=1;strokeWidth=2;fillColor=#dae8fc;strokeColor=#6c8ebf;" vertex="1" parent="1">
          <mxGeometry x="-800" y="360" width="1370" height="290" as="geometry" />
        </mxCell>
        <mxCell id="0uqqqMU11IoS7kORtfzS-3" value="&lt;font style=&quot;font-size: 18px&quot;&gt;&lt;b&gt;Capabilities hierarchy&lt;/b&gt;&lt;/font&gt;" style="text;html=1;strokeColor=#6c8ebf;fillColor=#dae8fc;align=center;verticalAlign=middle;whiteSpace=wrap;rounded=0;dashed=1;" vertex="1" parent="1">
          <mxGeometry x="-800" y="360" width="210" height="30" as="geometry" />
        </mxCell>
        <mxCell id="0uqqqMU11IoS7kORtfzS-5" value="" style="rounded=0;whiteSpace=wrap;html=1;strokeWidth=2;dashed=1;" vertex="1" parent="1">
          <mxGeometry x="-810" y="730" width="1380" height="250" as="geometry" />
        </mxCell>
        <mxCell id="0uqqqMU11IoS7kORtfzS-6" value="&lt;font style=&quot;font-size: 18px&quot;&gt;&lt;b&gt;Services&lt;/b&gt;&lt;/font&gt;" style="text;html=1;strokeColor=none;fillColor=none;align=center;verticalAlign=middle;whiteSpace=wrap;rounded=0;dashed=1;" vertex="1" parent="1">
          <mxGeometry x="-800" y="730" width="100" height="30" as="geometry" />
        </mxCell>
        <mxCell id="0uqqqMU11IoS7kORtfzS-9" value="" style="group;fillColor=#d5e8d4;strokeColor=#82b366;" vertex="1" connectable="0" parent="1">
          <mxGeometry x="-460" y="430" width="280" height="160" as="geometry" />
        </mxCell>
        <mxCell id="0uqqqMU11IoS7kORtfzS-10" value="" style="rounded=0;whiteSpace=wrap;html=1;strokeWidth=2;fillColor=#d5e8d4;strokeColor=#82b366;" vertex="1" parent="0uqqqMU11IoS7kORtfzS-9">
          <mxGeometry width="280" height="160" as="geometry" />
        </mxCell>
        <mxCell id="0uqqqMU11IoS7kORtfzS-11" value="&lt;font style=&quot;font-size: 18px&quot;&gt;Consumer management&lt;/font&gt;" style="text;html=1;strokeColor=none;fillColor=none;align=center;verticalAlign=middle;whiteSpace=wrap;rounded=0;dashed=1;fontSize=16;" vertex="1" parent="0uqqqMU11IoS7kORtfzS-9">
          <mxGeometry width="210" height="30" as="geometry" />
        </mxCell>
        <mxCell id="0uqqqMU11IoS7kORtfzS-8" value="" style="group;fillColor=#f8cecc;strokeColor=#b85450;" vertex="1" connectable="0" parent="1">
          <mxGeometry x="-770" y="430" width="280" height="160" as="geometry" />
        </mxCell>
        <mxCell id="0uqqqMU11IoS7kORtfzS-4" value="" style="rounded=0;whiteSpace=wrap;html=1;strokeWidth=2;fillColor=#d5e8d4;strokeColor=#82b366;" vertex="1" parent="0uqqqMU11IoS7kORtfzS-8">
          <mxGeometry width="280" height="160" as="geometry" />
        </mxCell>
        <mxCell id="0uqqqMU11IoS7kORtfzS-7" value="&lt;font style=&quot;font-size: 18px&quot;&gt;Supplier management&lt;/font&gt;" style="text;html=1;strokeColor=none;fillColor=none;align=center;verticalAlign=middle;whiteSpace=wrap;rounded=0;dashed=1;fontSize=16;" vertex="1" parent="0uqqqMU11IoS7kORtfzS-8">
          <mxGeometry width="190" height="30" as="geometry" />
        </mxCell>
        <mxCell id="0uqqqMU11IoS7kORtfzS-16" value="" style="group;fillColor=#d5e8d4;strokeColor=#82b366;" vertex="1" connectable="0" parent="1">
          <mxGeometry x="160" y="430" width="280" height="160" as="geometry" />
        </mxCell>
        <mxCell id="0uqqqMU11IoS7kORtfzS-17" value="" style="rounded=0;whiteSpace=wrap;html=1;strokeWidth=2;fillColor=#d5e8d4;strokeColor=#82b366;" vertex="1" parent="0uqqqMU11IoS7kORtfzS-16">
          <mxGeometry width="280" height="160" as="geometry" />
        </mxCell>
        <mxCell id="0uqqqMU11IoS7kORtfzS-18" value="&lt;font style=&quot;font-size: 18px&quot;&gt;Supplier management&lt;/font&gt;" style="text;html=1;strokeColor=#82b366;fillColor=#d5e8d4;align=center;verticalAlign=middle;whiteSpace=wrap;rounded=0;dashed=1;fontSize=16;" vertex="1" parent="0uqqqMU11IoS7kORtfzS-16">
          <mxGeometry width="190" height="30" as="geometry" />
        </mxCell>
        <mxCell id="0uqqqMU11IoS7kORtfzS-19" value="&lt;font style=&quot;font-size: 24px&quot;&gt;&lt;b&gt;Example: restaurant&lt;/b&gt;&lt;/font&gt;" style="text;html=1;strokeColor=none;fillColor=none;align=center;verticalAlign=middle;whiteSpace=wrap;rounded=0;dashed=1;" vertex="1" parent="1">
          <mxGeometry x="-800" y="320" width="240" height="20" as="geometry" />
        </mxCell>
        <mxCell id="0uqqqMU11IoS7kORtfzS-12" value="" style="group;fillColor=#d5e8d4;strokeColor=#82b366;" vertex="1" connectable="0" parent="1">
          <mxGeometry x="-150" y="430" width="280" height="160" as="geometry" />
        </mxCell>
        <mxCell id="0uqqqMU11IoS7kORtfzS-13" value="" style="rounded=0;whiteSpace=wrap;html=1;strokeWidth=2;fillColor=#d5e8d4;strokeColor=#82b366;" vertex="1" parent="0uqqqMU11IoS7kORtfzS-12">
          <mxGeometry width="280" height="160" as="geometry" />
        </mxCell>
        <mxCell id="0uqqqMU11IoS7kORtfzS-14" value="&lt;font style=&quot;font-size: 18px&quot;&gt;Orders management&lt;/font&gt;" style="text;html=1;strokeColor=#82b366;fillColor=#d5e8d4;align=center;verticalAlign=middle;whiteSpace=wrap;rounded=0;dashed=1;fontSize=16;" vertex="1" parent="0uqqqMU11IoS7kORtfzS-12">
          <mxGeometry width="190" height="30" as="geometry" />
        </mxCell>
        <mxCell id="0uqqqMU11IoS7kORtfzS-20" value="" style="group;fillColor=#fff2cc;strokeColor=#d6b656;" vertex="1" connectable="0" parent="1">
          <mxGeometry x="-770" y="780" width="280" height="160" as="geometry" />
        </mxCell>
        <mxCell id="0uqqqMU11IoS7kORtfzS-21" value="" style="rounded=0;whiteSpace=wrap;html=1;strokeWidth=2;fillColor=#fff2cc;strokeColor=#d6b656;" vertex="1" parent="0uqqqMU11IoS7kORtfzS-20">
          <mxGeometry width="280" height="160" as="geometry" />
        </mxCell>
        <mxCell id="0uqqqMU11IoS7kORtfzS-22" value="&lt;font style=&quot;font-size: 18px&quot;&gt;Supplier management&lt;/font&gt;" style="text;html=1;strokeColor=#d6b656;fillColor=#fff2cc;align=center;verticalAlign=middle;whiteSpace=wrap;rounded=0;dashed=1;fontSize=16;" vertex="1" parent="0uqqqMU11IoS7kORtfzS-20">
          <mxGeometry width="190" height="30" as="geometry" />
        </mxCell>
        <mxCell id="0uqqqMU11IoS7kORtfzS-25" value="" style="group;fillColor=#f8cecc;strokeColor=#b85450;" vertex="1" connectable="0" parent="1">
          <mxGeometry x="160" y="780" width="280" height="160" as="geometry" />
        </mxCell>
        <mxCell id="0uqqqMU11IoS7kORtfzS-26" value="" style="rounded=0;whiteSpace=wrap;html=1;strokeWidth=2;fillColor=#fff2cc;strokeColor=#d6b656;" vertex="1" parent="0uqqqMU11IoS7kORtfzS-25">
          <mxGeometry width="280" height="160" as="geometry" />
        </mxCell>
        <mxCell id="0uqqqMU11IoS7kORtfzS-27" value="&lt;font style=&quot;font-size: 18px&quot;&gt;Supplier service&lt;/font&gt;" style="text;html=1;strokeColor=#d6b656;fillColor=#fff2cc;align=center;verticalAlign=middle;whiteSpace=wrap;rounded=0;dashed=1;fontSize=16;" vertex="1" parent="0uqqqMU11IoS7kORtfzS-25">
          <mxGeometry width="190" height="30" as="geometry" />
        </mxCell>
        <mxCell id="0uqqqMU11IoS7kORtfzS-31" value="" style="group;fillColor=#f8cecc;strokeColor=#b85450;" vertex="1" connectable="0" parent="1">
          <mxGeometry x="-460" y="780" width="280" height="160" as="geometry" />
        </mxCell>
        <mxCell id="0uqqqMU11IoS7kORtfzS-32" value="" style="rounded=0;whiteSpace=wrap;html=1;strokeWidth=2;fillColor=#fff2cc;strokeColor=#d6b656;" vertex="1" parent="0uqqqMU11IoS7kORtfzS-31">
          <mxGeometry width="280" height="160" as="geometry" />
        </mxCell>
        <mxCell id="0uqqqMU11IoS7kORtfzS-33" value="&lt;font style=&quot;font-size: 18px&quot;&gt;Consumer service&lt;/font&gt;" style="text;html=1;strokeColor=#d6b656;fillColor=#fff2cc;align=center;verticalAlign=middle;whiteSpace=wrap;rounded=0;dashed=1;fontSize=16;" vertex="1" parent="0uqqqMU11IoS7kORtfzS-31">
          <mxGeometry width="190" height="30" as="geometry" />
        </mxCell>
        <mxCell id="0uqqqMU11IoS7kORtfzS-34" style="rounded=0;orthogonalLoop=1;jettySize=auto;html=1;entryX=0.75;entryY=0;entryDx=0;entryDy=0;" edge="1" parent="1" source="0uqqqMU11IoS7kORtfzS-10" target="0uqqqMU11IoS7kORtfzS-33">
          <mxGeometry relative="1" as="geometry" />
        </mxCell>
        <mxCell id="0uqqqMU11IoS7kORtfzS-39" value="" style="rounded=0;whiteSpace=wrap;html=1;strokeWidth=2;fillColor=#fff2cc;strokeColor=#d6b656;" vertex="1" parent="1">
          <mxGeometry x="-130" y="780" width="110" height="160" as="geometry" />
        </mxCell>
        <mxCell id="0uqqqMU11IoS7kORtfzS-40" value="&lt;font style=&quot;font-size: 18px&quot;&gt;Order service&lt;/font&gt;" style="text;html=1;strokeColor=#d6b656;fillColor=#fff2cc;align=center;verticalAlign=middle;whiteSpace=wrap;rounded=0;dashed=1;fontSize=16;" vertex="1" parent="1">
          <mxGeometry x="-130" y="790" width="110" height="30" as="geometry" />
        </mxCell>
        <mxCell id="0uqqqMU11IoS7kORtfzS-41" value="" style="rounded=0;whiteSpace=wrap;html=1;strokeWidth=2;fillColor=#fff2cc;strokeColor=#d6b656;" vertex="1" parent="1">
          <mxGeometry x="10" y="780" width="110" height="160" as="geometry" />
        </mxCell>
        <mxCell id="0uqqqMU11IoS7kORtfzS-42" value="&lt;font style=&quot;font-size: 18px&quot;&gt;Kitchen service&lt;/font&gt;" style="text;html=1;strokeColor=#d6b656;fillColor=#fff2cc;align=center;verticalAlign=middle;whiteSpace=wrap;rounded=0;dashed=1;fontSize=16;" vertex="1" parent="1">
          <mxGeometry x="10" y="790" width="110" height="30" as="geometry" />
        </mxCell>
        <mxCell id="0uqqqMU11IoS7kORtfzS-43" style="edgeStyle=none;rounded=0;orthogonalLoop=1;jettySize=auto;html=1;entryX=0.5;entryY=0;entryDx=0;entryDy=0;" edge="1" parent="1" source="0uqqqMU11IoS7kORtfzS-4" target="0uqqqMU11IoS7kORtfzS-21">
          <mxGeometry relative="1" as="geometry" />
        </mxCell>
        <mxCell id="0uqqqMU11IoS7kORtfzS-44" style="edgeStyle=none;rounded=0;orthogonalLoop=1;jettySize=auto;html=1;entryX=0.5;entryY=0;entryDx=0;entryDy=0;" edge="1" parent="1" source="0uqqqMU11IoS7kORtfzS-13" target="0uqqqMU11IoS7kORtfzS-39">
          <mxGeometry relative="1" as="geometry" />
        </mxCell>
        <mxCell id="0uqqqMU11IoS7kORtfzS-45" style="edgeStyle=none;rounded=0;orthogonalLoop=1;jettySize=auto;html=1;entryX=0.4;entryY=-0.006;entryDx=0;entryDy=0;entryPerimeter=0;" edge="1" parent="1" source="0uqqqMU11IoS7kORtfzS-13" target="0uqqqMU11IoS7kORtfzS-41">
          <mxGeometry relative="1" as="geometry" />
        </mxCell>
      </root>
    </mxGraphModel>
  </diagram>
</mxfile>
